<svg width="115" height="27" viewBox="0 0 115 27" fill="black" xmlns="http://www.w3.org/2000/svg"
    class="hidden h-9 w-auto fill-slate-700 dark:fill-sky-100 lg:block">
    <path
        d="M30.878 7.95455V3.18182H49.8411V7.95455H43.2786V25H37.4405V7.95455H30.878ZM72.1813 14.0909C72.1813 16.5199 71.709 18.5689 70.7644 20.2379C69.8198 21.8999 68.5449 23.1605 66.9398 24.0199C65.3347 24.8722 63.5449 25.2983 61.5705 25.2983C59.5819 25.2983 57.785 24.8686 56.1799 24.0092C54.5819 23.1428 53.3105 21.8786 52.3659 20.2166C51.4284 18.5476 50.9597 16.5057 50.9597 14.0909C50.9597 11.6619 51.4284 9.61648 52.3659 7.95455C53.3105 6.28551 54.5819 5.02486 56.1799 4.17258C57.785 3.31321 59.5819 2.88352 61.5705 2.88352C63.5449 2.88352 65.3347 3.31321 66.9398 4.17258C68.5449 5.02486 69.8198 6.28551 70.7644 7.95455C71.709 9.61648 72.1813 11.6619 72.1813 14.0909ZM66.0875 14.0909C66.0875 12.7841 65.9135 11.6832 65.5655 10.7884C65.2246 9.88636 64.7168 9.20454 64.0421 8.7429C63.3745 8.27415 62.5506 8.03977 61.5705 8.03977C60.5904 8.03977 59.763 8.27415 59.0882 8.7429C58.4206 9.20454 57.9128 9.88636 57.5648 10.7884C57.2239 11.6832 57.0534 12.7841 57.0534 14.0909C57.0534 15.3977 57.2239 16.5021 57.5648 17.4041C57.9128 18.299 58.4206 18.9808 59.0882 19.4496C59.763 19.9112 60.5904 20.142 61.5705 20.142C62.5506 20.142 63.3745 19.9112 64.0421 19.4496C64.7168 18.9808 65.2246 18.299 65.5655 17.4041C65.9135 16.5021 66.0875 15.3977 66.0875 14.0909ZM74.9219 25V3.18182H84.3395C85.9588 3.18182 87.3757 3.47656 88.5902 4.06605C89.8047 4.65554 90.7493 5.50426 91.424 6.61222C92.0987 7.72017 92.4361 9.04829 92.4361 10.5966C92.4361 12.1591 92.0881 13.4766 91.392 14.549C90.7031 15.6214 89.7337 16.4311 88.4837 16.978C87.2408 17.5249 85.7884 17.7983 84.1264 17.7983H78.5014V13.196H82.9332C83.6293 13.196 84.2223 13.1108 84.7124 12.9403C85.2095 12.7628 85.5895 12.4822 85.8523 12.0987C86.1222 11.7152 86.2571 11.2145 86.2571 10.5966C86.2571 9.97159 86.1222 9.46378 85.8523 9.07315C85.5895 8.67543 85.2095 8.38423 84.7124 8.19957C84.2223 8.00781 83.6293 7.91193 82.9332 7.91193H80.8452V25H74.9219ZM87.706 14.9858L93.1605 25H86.7259L81.3991 14.9858H87.706ZM94.9609 25V3.18182H100.884V12.0028H101.183L107.745 3.18182H114.648L107.276 12.8977L114.819 25H107.745L102.844 16.8182L100.884 19.375V25H94.9609Z"></path>
    <g fill="none" stroke="#38BDF8" stroke-linejoin="round" stroke-width="1">
        <path opacity="0.3" d="M23.625 8.4375L13.5 14.3438L3.375 8.4375L13.5 2.53125L23.625 8.4375Z"></path>
        <path
            d="M24.3538 18.1406C24.4652 18.334 24.4955 18.5637 24.438 18.7793C24.3805 18.995 24.2398 19.1791 24.0469 19.2913L13.9219 25.1975C13.7929 25.2728 13.6462 25.3124 13.4968 25.3124C13.3475 25.3124 13.2008 25.2728 13.0718 25.1975L2.9468 19.2913C2.75663 19.177 2.61912 18.9924 2.56405 18.7775C2.50898 18.5626 2.54077 18.3346 2.65254 18.143C2.76431 17.9513 2.94707 17.8114 3.16124 17.7535C3.37542 17.6957 3.60378 17.7245 3.79688 17.8337L13.5 23.4921L23.2031 17.8337C23.3965 17.7223 23.6262 17.692 23.8418 17.7495C24.0575 17.807 24.2416 17.9477 24.3538 18.1406ZM23.2031 12.7712L13.5 18.4296L3.79688 12.7712C3.60476 12.6756 3.38341 12.6567 3.17788 12.7185C2.97236 12.7803 2.7981 12.9181 2.69058 13.1038C2.58307 13.2895 2.55037 13.5093 2.59914 13.7183C2.64792 13.9273 2.7745 14.1098 2.95312 14.2288L13.0781 20.135C13.2071 20.2103 13.3538 20.2499 13.5032 20.2499C13.6525 20.2499 13.7992 20.2103 13.9282 20.135L24.0532 14.2288C24.1505 14.1738 24.2358 14.1 24.3043 14.0117C24.3728 13.9234 24.4231 13.8224 24.4522 13.7146C24.4814 13.6067 24.4888 13.4941 24.4741 13.3834C24.4594 13.2726 24.4229 13.1659 24.3666 13.0694C24.3103 12.9728 24.2354 12.8885 24.1462 12.8211C24.0571 12.7538 23.9554 12.7048 23.8472 12.6771C23.7389 12.6494 23.6263 12.6434 23.5157 12.6595C23.4051 12.6757 23.2989 12.7137 23.2031 12.7712ZM2.53125 8.4375C2.53159 8.28972 2.57073 8.14461 2.64477 8.01671C2.71881 7.88881 2.82514 7.7826 2.95312 7.70871L13.0781 1.80246C13.2071 1.72723 13.3538 1.68758 13.5032 1.68758C13.6525 1.68758 13.7992 1.72723 13.9282 1.80246L24.0532 7.70871C24.1806 7.78302 24.2862 7.88941 24.3597 8.01728C24.4331 8.14515 24.4718 8.29004 24.4718 8.4375C24.4718 8.58496 24.4331 8.72985 24.3597 8.85772C24.2862 8.98559 24.1806 9.09198 24.0532 9.16629L13.9282 15.0725C13.7992 15.1478 13.6525 15.1874 13.5032 15.1874C13.3538 15.1874 13.2071 15.1478 13.0781 15.0725L2.95312 9.16629C2.82514 9.0924 2.71881 8.98619 2.64477 8.85829C2.57073 8.73039 2.53159 8.58528 2.53125 8.4375ZM5.04984 8.4375L13.5 13.3671L21.9502 8.4375L13.5 3.50789L5.04984 8.4375Z"></path>
    </g>
</svg>